<svg width="63" height="24" viewBox="0 0 63 24" fill="none" xmlns="http://www.w3.org/2000/svg">
<path d="M3.848 23H0.00800014V1.24H3.848V23ZM12.4758 14.392C12.4758 15.9493 12.8171 17.2293 13.4998 18.232C14.1824 19.2133 15.3024 19.704 16.8598 19.704C17.4998 19.704 18.1611 19.6187 18.8438 19.448C19.5478 19.2773 20.4118 18.9893 21.4358 18.584L22.6198 21.912C21.4678 22.424 20.4011 22.7867 19.4198 23C18.4598 23.2133 17.5318 23.32 16.6358 23.32C14.8438 23.32 13.3398 22.936 12.1238 22.168C10.9291 21.4 10.0331 20.344 9.43575 19C8.83842 17.656 8.53975 16.12 8.53975 14.392V9.816C8.53975 8.088 8.83842 6.552 9.43575 5.208C10.0331 3.864 10.9291 2.81867 12.1238 2.072C13.3398 1.304 14.8438 0.919998 16.6358 0.919998C17.5104 0.919998 18.4171 1.02667 19.3558 1.24C20.2944 1.432 21.3184 1.77333 22.4278 2.264L21.2438 5.656C20.2624 5.25067 19.4411 4.96267 18.7798 4.792C18.1184 4.62133 17.4784 4.536 16.8598 4.536C15.3024 4.536 14.1824 5.02667 13.4998 6.008C12.8171 6.98933 12.4758 8.25867 12.4758 9.816V14.392ZM41.5413 9.816V14.392C41.5413 17.1653 40.8479 19.352 39.4613 20.952C38.0746 22.5307 36.0479 23.32 33.3813 23.32C30.6933 23.32 28.6559 22.5307 27.2693 20.952C25.9039 19.352 25.2213 17.1653 25.2213 14.392V9.816C25.2213 7.04267 25.9039 4.86666 27.2693 3.288C28.6559 1.70933 30.6933 0.919998 33.3813 0.919998C36.0479 0.919998 38.0746 1.70933 39.4613 3.288C40.8479 4.86666 41.5413 7.04267 41.5413 9.816ZM37.6053 9.816C37.6053 8.06667 37.2639 6.75467 36.5813 5.88C35.8986 4.984 34.8319 4.536 33.3813 4.536C31.9306 4.536 30.8639 4.984 30.1813 5.88C29.4986 6.75467 29.1573 8.06667 29.1573 9.816V14.392C29.1573 16.1413 29.4986 17.464 30.1813 18.36C30.8639 19.256 31.9306 19.704 33.3813 19.704C34.8319 19.704 35.8986 19.256 36.5813 18.36C37.2639 17.464 37.6053 16.1413 37.6053 14.392V9.816ZM46.298 23V1.24H49.818C51.5033 3.43733 53.1033 5.76267 54.618 8.216C56.1327 10.648 57.5087 13.1547 58.746 15.736L58.458 9.24V1.24H62.138V23H58.618C57.2527 20.312 55.834 17.6133 54.362 14.904C52.9113 12.1733 51.3647 9.60267 49.722 7.192L49.978 14.68V23H46.298Z" fill="white"/>
</svg>
