<svg width="147" height="24" viewBox="0 0 147 24" fill="none" xmlns="http://www.w3.org/2000/svg">
<path d="M4.2 1.24L10.28 16.12L16.328 1.24H20.52V23H16.84V14.68L17.32 7.064L11.912 20.44H8.488L3.208 7.032L3.688 14.68V23H0.00800014V1.24H4.2ZM41.6113 9.816V14.392C41.6113 17.1653 40.9179 19.352 39.5313 20.952C38.1446 22.5307 36.1179 23.32 33.4513 23.32C30.7633 23.32 28.7259 22.5307 27.3393 20.952C25.9739 19.352 25.2913 17.1653 25.2913 14.392V9.816C25.2913 7.04267 25.9739 4.86666 27.3393 3.288C28.7259 1.70933 30.7633 0.919998 33.4513 0.919998C36.1179 0.919998 38.1446 1.70933 39.5313 3.288C40.9179 4.86666 41.6113 7.04267 41.6113 9.816ZM37.6753 9.816C37.6753 8.06667 37.3339 6.75467 36.6513 5.88C35.9686 4.984 34.9019 4.536 33.4513 4.536C32.0006 4.536 30.9339 4.984 30.2513 5.88C29.5686 6.75467 29.2273 8.06667 29.2273 9.816V14.392C29.2273 16.1413 29.5686 17.464 30.2513 18.36C30.9339 19.256 32.0006 19.704 33.4513 19.704C34.9019 19.704 35.9686 19.256 36.6513 18.36C37.3339 17.464 37.6753 16.1413 37.6753 14.392V9.816ZM61.1313 1.24L54.2193 23H50.2833L43.3393 1.24H47.5633L50.8593 12.184L52.3633 17.816L53.9633 12.152L57.2273 1.24H61.1313ZM68.1068 23H64.2668V1.24H68.1068V23ZM86.3985 19.32V23H73.7905V1.24H86.0785V4.92H77.6305V10.136H85.1185V13.816H77.6305V19.32H86.3985Z" fill="white"/>
<path d="M101.763 14.648H94.4668V23H90.6268V1.24H102.723V4.92H94.4668V10.968H101.763V14.648ZM119.007 19.32V23H106.463V1.24H110.303V19.32H119.007ZM126.202 23H122.362V1.24H126.202V23ZM142.254 23L137.71 15.032L133.39 23H129.358L135.726 11.704L129.71 1.24H134.062L138.254 8.536L142.19 1.24H146.222L140.238 11.896L146.606 23H142.254Z" fill="#02C0C2"/>
</svg>
