<svg width="40" height="40" viewBox="0 0 40 40" fill="none" xmlns="http://www.w3.org/2000/svg">
<rect width="40" height="40" rx="5" fill="#A3B0CC"/>
<path opacity="0.3" d="M20 32.5C26.9036 32.5 32.5 26.9036 32.5 20C32.5 13.0964 26.9036 7.5 20 7.5C13.0964 7.5 7.5 13.0964 7.5 20C7.5 26.9036 13.0964 32.5 20 32.5Z" fill="#01216C"/>
<path d="M20 22.425C22.6234 22.425 24.75 20.2984 24.75 17.675C24.75 15.0517 22.6234 12.925 20 12.925C17.3766 12.925 15.25 15.0517 15.25 17.675C15.25 20.2984 17.3766 22.425 20 22.425Z" fill="#01216C"/>
<path d="M20 32.5C22.9821 32.5034 25.8659 31.4341 28.125 29.4875C27.5393 27.7991 26.4421 26.335 24.986 25.2989C23.5299 24.2628 21.7871 23.7061 20 23.7061C18.2129 23.7061 16.4701 24.2628 15.014 25.2989C13.5579 26.335 12.4607 27.7991 11.875 29.4875C14.1341 31.4341 17.0179 32.5034 20 32.5V32.5Z" fill="#01216C"/>
</svg>
